<svg width="19" height="30" viewBox="0 0 19 30" fill="none" xmlns="http://www.w3.org/2000/svg">
<path d="M15.8521 29.4999V29.4998L15.8461 29.4999C15.4986 29.5008 15.1579 29.4401 14.85 29.3248C14.5423 29.2096 14.2804 29.0449 14.0792 28.8493C14.079 28.8491 14.0788 28.8489 14.0786 28.8487L0.967624 15.9941L0.967643 15.9941L0.963878 15.9905C0.650299 15.6894 0.5 15.3343 0.5 14.9906C0.5 14.6472 0.649923 14.2926 0.962699 13.9918C0.963091 13.9914 0.963484 13.991 0.963877 13.9906L14.5353 1.13706L14.5357 1.13662C14.9016 0.789171 15.4498 0.552772 16.0686 0.507748C16.6868 0.462759 17.2905 0.61538 17.745 0.913564L18.0187 0.496429L17.745 0.913565C18.198 1.21074 18.4458 1.61149 18.4919 2.00639C18.5375 2.39703 18.3896 2.81035 18.0283 3.15365C18.0282 3.15379 18.0281 3.15392 18.0279 3.15406L5.89347 14.6381L5.51625 14.9951L5.88733 15.3585L17.6152 26.8431L17.6151 26.8432L17.6211 26.8489C17.8827 27.0967 18.0334 27.383 18.0789 27.6683C18.1242 27.9519 18.0677 28.2455 17.9025 28.5196C17.7357 28.7963 17.461 29.0466 17.0949 29.2269C16.7289 29.407 16.2972 29.504 15.8521 29.4999Z" fill="white" stroke="black"/>
</svg>
